<svg width="80" height="81" viewBox="0 0 80 81" fill="none" xmlns="http://www.w3.org/2000/svg">
<g clip-path="url(#clip0_2042_31)">
<path d="M79.6933 51.1954L66.1267 5.98541C65 2.20208 60.8833 -0.0379232 57.0667 1.10208L39.8767 6.25874C39.5956 4.72732 38.7874 3.34256 37.5923 2.34465C36.3971 1.34674 34.8903 0.798642 33.3333 0.79541C29.6567 0.79541 26.6667 3.78541 26.6667 7.46208H6.66667C2.99 7.46208 0 10.4521 0 14.1287V64.1287C0 67.8054 2.99 70.7954 6.66667 70.7954H21.4067C22.72 72.8387 24.9733 74.1287 27.5067 74.1287C28.22 74.1287 28.9233 74.0254 29.6 73.8221L74.81 60.2554C76.3123 59.813 77.6304 58.895 78.5663 57.6393C79.5022 56.3837 80.0053 54.8582 80 53.2921C80.0005 52.5831 79.8971 51.8778 79.6933 51.1987V51.1954Z" fill="#121212"/>
<path d="M3.33301 64.1287V14.1287C3.33301 12.2921 4.82967 10.7954 6.66634 10.7954H24.7563L11.8563 14.6654C10.3524 15.1083 9.03304 16.0278 8.09699 17.2855C7.16093 18.5432 6.65885 20.071 6.66634 21.6387C6.66634 22.3487 6.76967 23.0521 6.97301 23.7287L20.093 67.4621H6.66634C4.82967 67.4621 3.33301 65.9654 3.33301 64.1287Z" fill="#F83E3E"/>
<path d="M73.8535 57.062L28.6435 70.6287C27.6413 70.9068 26.5703 70.7867 25.6546 70.2934C24.7389 69.8002 24.0493 68.972 23.7302 67.982L10.1669 22.772C9.87281 21.7695 9.98575 20.6916 10.4812 19.7718C10.9766 18.8521 11.8146 18.1647 12.8135 17.8587L29.4635 12.8653C30.5535 13.652 31.8835 14.1287 33.3335 14.1287C33.9335 14.1287 34.5002 14.0253 35.0502 13.8753L36.9469 16.7187C37.065 16.9078 37.2198 17.0713 37.4022 17.1996C37.5847 17.3278 37.791 17.4181 38.0089 17.4652C38.2269 17.5122 38.4521 17.5151 38.6712 17.4735C38.8902 17.432 39.0987 17.3469 39.2844 17.2233C39.47 17.0997 39.6289 16.9401 39.7517 16.754C39.8745 16.5679 39.9587 16.359 39.9994 16.1398C40.04 15.9205 40.0362 15.6954 39.9883 15.4776C39.9403 15.2598 39.8492 15.0539 39.7202 14.872L37.9669 12.2387C38.6605 11.5627 39.1986 10.7437 39.5435 9.83867L58.0202 4.29534C59.0229 4.01707 60.0943 4.13709 61.0106 4.63031C61.9268 5.12354 62.617 5.95181 62.9369 6.94201L76.5035 52.152C76.7976 53.1545 76.6847 54.2325 76.1892 55.1522C75.6938 56.072 74.8558 56.7594 73.8569 57.0654L73.8535 57.062Z" fill="#FAFAFA"/>
<path d="M73.8533 57.0622C74.8514 56.7562 75.6888 56.0693 76.1842 55.1503C76.6796 54.2313 76.793 53.1542 76.5 52.1522L72.5266 38.9055L42.5566 8.93555L39.5433 9.83888C39.1983 10.7439 38.6603 11.5629 37.9666 12.2389L39.72 14.8722C39.8489 15.0541 39.9401 15.26 39.9881 15.4778C40.036 15.6956 40.0398 15.9207 39.9991 16.14C39.9585 16.3592 39.8743 16.5681 39.7514 16.7542C39.6286 16.9403 39.4697 17.0999 39.2841 17.2235C39.0985 17.3471 38.89 17.4322 38.6709 17.4737C38.4518 17.5153 38.2267 17.5124 38.0087 17.4654C37.7907 17.4183 37.5844 17.328 37.402 17.1998C37.2196 17.0716 37.0647 16.908 36.9466 16.7189L35.05 13.8755C34.4914 14.0353 33.9142 14.1205 33.3333 14.1289C31.8833 14.1289 30.5533 13.6522 29.46 12.8655L73.7 57.1089L73.85 57.0655L73.8533 57.0622Z" fill="#FAFAFA"/>
<path d="M55.0003 80.7956C65.1255 80.7956 73.3337 72.5875 73.3337 62.4622C73.3337 52.337 65.1255 44.1289 55.0003 44.1289C44.8751 44.1289 36.667 52.337 36.667 62.4622C36.667 72.5875 44.8751 80.7956 55.0003 80.7956Z" fill="#121212"/>
<path d="M55 77.4619C63.2843 77.4619 70 70.7462 70 62.4619C70 54.1776 63.2843 47.4619 55 47.4619C46.7157 47.4619 40 54.1776 40 62.4619C40 70.7462 46.7157 77.4619 55 77.4619Z" fill="#F83E3E"/>
<path d="M33.3333 10.7956C35.1743 10.7956 36.6667 9.30319 36.6667 7.46224C36.6667 5.62129 35.1743 4.12891 33.3333 4.12891C31.4924 4.12891 30 5.62129 30 7.46224C30 9.30319 31.4924 10.7956 33.3333 10.7956Z" fill="#F83E3E"/>
<path opacity="0.1" d="M34.6933 4.43555C34.8917 4.8617 34.9963 5.32549 35 5.79555C35 7.63221 33.5033 9.12888 31.6666 9.12888C31.1966 9.12519 30.7328 9.02061 30.3066 8.82221C30.5677 9.40751 30.9922 9.90504 31.5291 10.2551C32.0659 10.6051 32.6924 10.7928 33.3333 10.7955C35.17 10.7955 36.6666 9.29888 36.6666 7.46221C36.6639 6.82132 36.4762 6.19485 36.1262 5.65797C35.7761 5.1211 35.2786 4.69665 34.6933 4.43555Z" fill="#121212"/>
<path d="M46.7006 60.2219L52.471 67.7613L64.3756 57.6164" stroke="#FAFAFA" stroke-width="2.76502" stroke-linecap="round" stroke-linejoin="round"/>
</g>
<defs>
<clipPath id="clip0_2042_31">
<rect width="80" height="80" fill="white" transform="translate(0 0.79541)"/>
</clipPath>
</defs>
</svg>
